<svg xmlns="http://www.w3.org/2000/svg" xmlns:xlink="http://www.w3.org/1999/xlink" width="512" zoomAndPan="magnify" viewBox="0 0 384 383.999986" height="512" preserveAspectRatio="xMidYMid meet" version="1.0"><defs><g/><clipPath id="3e2db4354d"><path d="M 107.304688 77 L 195 77 L 195 141 L 107.304688 141 Z M 107.304688 77 " clip-rule="nonzero"/></clipPath><clipPath id="346bff57fb"><path d="M 168 166 L 216 166 L 216 234.480469 L 168 234.480469 Z M 168 166 " clip-rule="nonzero"/></clipPath><clipPath id="8fcf0fc60a"><path d="M 168 166 L 223 166 L 223 234.480469 L 168 234.480469 Z M 168 166 " clip-rule="nonzero"/></clipPath></defs><g clip-path="url(#3e2db4354d)"><path fill="#000aff" d="M 107.304688 77.015625 L 139.425781 131.839844 L 194.972656 140.050781 Z M 107.304688 77.015625 " fill-opacity="1" fill-rule="nonzero"/><path fill="#0057ff" d="M 107.304688 77.015625 L 125.417969 81.363281 L 194.972656 140.050781 Z M 107.304688 77.015625 " fill-opacity="1" fill-rule="nonzero"/></g><path fill="#0057ff" d="M 194.972656 140.050781 L 120.585938 128.21875 L 165.75 165.652344 Z M 194.972656 140.050781 " fill-opacity="1" fill-rule="nonzero"/><path fill="#85ccff" d="M 194.972656 140.050781 L 194.371094 177.121094 L 165.75 165.652344 Z M 194.972656 140.050781 " fill-opacity="1" fill-rule="nonzero"/><path fill="#0057ff" d="M 190.382812 136.667969 L 210.429688 125.558594 L 216.707031 134.496094 Z M 190.382812 136.667969 " fill-opacity="1" fill-rule="nonzero"/><path fill="#fafafa" d="M 210.429688 125.558594 L 228.421875 130.632812 L 216.347656 134.496094 Z M 210.429688 125.558594 " fill-opacity="1" fill-rule="nonzero"/><path fill="#000aff" d="M 190.382812 136.667969 L 216.46875 154.664062 L 216.347656 134.496094 Z M 190.382812 136.667969 " fill-opacity="1" fill-rule="nonzero"/><path fill="#000aff" d="M 228.664062 130.511719 L 272.738281 131.117188 L 231.441406 135.945312 Z M 228.664062 130.511719 " fill-opacity="1" fill-rule="nonzero"/><path fill="#fafafa" d="M 228.664062 130.511719 L 216.46875 154.664062 L 231.441406 135.945312 Z M 228.664062 130.511719 " fill-opacity="1" fill-rule="nonzero"/><path fill="#85ccff" d="M 216.347656 134.496094 L 228.664062 130.511719 L 216.46875 154.664062 Z M 216.347656 134.496094 " fill-opacity="1" fill-rule="nonzero"/><path fill="#000aff" d="M 194.972656 140.535156 L 194.371094 189.558594 L 203.425781 183.039062 Z M 194.972656 140.535156 " fill-opacity="1" fill-rule="nonzero"/><path fill="#0057ff" d="M 194.972656 140.050781 L 216.46875 154.664062 L 203.425781 183.039062 Z M 194.972656 140.050781 " fill-opacity="1" fill-rule="nonzero"/><path fill="#0057ff" d="M 168.164062 166.617188 L 194.246094 223.613281 L 184.105469 226.753906 Z M 168.164062 166.617188 " fill-opacity="1" fill-rule="nonzero"/><path fill="#000aff" d="M 168.164062 166.617188 L 173.960938 205.257812 L 184.105469 226.753906 Z M 168.164062 166.617188 " fill-opacity="1" fill-rule="nonzero"/><g clip-path="url(#346bff57fb)"><path fill="#000aff" d="M 215.261719 234.722656 L 168.164062 166.617188 L 194.246094 223.613281 Z M 215.261719 234.722656 " fill-opacity="1" fill-rule="nonzero"/></g><path fill="#0057ff" d="M 168.164062 166.617188 L 194.609375 177.363281 L 194.609375 189.316406 Z M 168.164062 166.617188 " fill-opacity="1" fill-rule="nonzero"/><g clip-path="url(#8fcf0fc60a)"><path fill="#85ccff" d="M 168.164062 166.617188 L 215.261719 234.722656 L 222.988281 212.746094 Z M 168.164062 166.617188 " fill-opacity="1" fill-rule="nonzero"/></g><path fill="#0057ff" d="M 231.921875 212.746094 L 222.988281 212.746094 L 194.609375 189.316406 Z M 231.921875 212.746094 " fill-opacity="1" fill-rule="nonzero"/><path fill="#fafafa" d="M 203.425781 183.039062 L 231.921875 212.746094 L 194.609375 189.316406 Z M 203.425781 183.039062 " fill-opacity="1" fill-rule="nonzero"/><path fill="#100f0d" d="M 221.980469 137.429688 C 221.980469 138.191406 221.363281 138.8125 220.597656 138.8125 C 219.835938 138.8125 219.21875 138.191406 219.21875 137.429688 C 219.21875 136.667969 219.835938 136.050781 220.597656 136.050781 C 221.363281 136.050781 221.980469 136.667969 221.980469 137.429688 " fill-opacity="1" fill-rule="nonzero"/><g fill="#fafafa" fill-opacity="1"><g transform="translate(56.505334, 280.653453)"><g><path d="M 17.703125 -5.234375 L 6.390625 -5.234375 L 4.171875 0 L -0.15625 0 L 10.015625 -22.609375 L 14.140625 -22.609375 L 24.359375 0 L 19.953125 0 Z M 16.3125 -8.53125 L 12.046875 -18.40625 L 7.8125 -8.53125 Z M 16.3125 -8.53125 "/></g></g></g><g fill="#fafafa" fill-opacity="1"><g transform="translate(86.830652, 280.653453)"><g><path d="M 19.0625 -11.75 C 20.300781 -11.34375 21.285156 -10.660156 22.015625 -9.703125 C 22.753906 -8.742188 23.125 -7.554688 23.125 -6.140625 C 23.125 -4.179688 22.367188 -2.664062 20.859375 -1.59375 C 19.359375 -0.53125 17.164062 0 14.28125 0 L 3.03125 0 L 3.03125 -22.609375 L 13.625 -22.609375 C 16.300781 -22.609375 18.359375 -22.082031 19.796875 -21.03125 C 21.242188 -19.988281 21.96875 -18.554688 21.96875 -16.734375 C 21.96875 -15.609375 21.707031 -14.613281 21.1875 -13.75 C 20.664062 -12.894531 19.957031 -12.226562 19.0625 -11.75 Z M 7.234375 -19.3125 L 7.234375 -13.078125 L 13.171875 -13.078125 C 14.640625 -13.078125 15.765625 -13.335938 16.546875 -13.859375 C 17.335938 -14.390625 17.734375 -15.164062 17.734375 -16.1875 C 17.734375 -17.21875 17.335938 -17.992188 16.546875 -18.515625 C 15.765625 -19.046875 14.640625 -19.3125 13.171875 -19.3125 Z M 14.015625 -3.296875 C 17.265625 -3.296875 18.890625 -4.382812 18.890625 -6.5625 C 18.890625 -8.726562 17.265625 -9.8125 14.015625 -9.8125 L 7.234375 -9.8125 L 7.234375 -3.296875 Z M 14.015625 -3.296875 "/></g></g></g><g fill="#fafafa" fill-opacity="1"><g transform="translate(117.543475, 280.653453)"><g><path d="M 3.03125 -22.609375 L 12.921875 -22.609375 C 15.328125 -22.609375 17.46875 -22.140625 19.34375 -21.203125 C 21.21875 -20.265625 22.671875 -18.9375 23.703125 -17.21875 C 24.734375 -15.507812 25.25 -13.535156 25.25 -11.296875 C 25.25 -9.054688 24.734375 -7.082031 23.703125 -5.375 C 22.671875 -3.664062 21.21875 -2.34375 19.34375 -1.40625 C 17.46875 -0.46875 15.328125 0 12.921875 0 L 3.03125 0 Z M 12.71875 -3.546875 C 14.382812 -3.546875 15.84375 -3.863281 17.09375 -4.5 C 18.351562 -5.132812 19.320312 -6.039062 20 -7.21875 C 20.6875 -8.394531 21.03125 -9.753906 21.03125 -11.296875 C 21.03125 -12.847656 20.6875 -14.210938 20 -15.390625 C 19.320312 -16.566406 18.351562 -17.472656 17.09375 -18.109375 C 15.84375 -18.742188 14.382812 -19.0625 12.71875 -19.0625 L 7.234375 -19.0625 L 7.234375 -3.546875 Z M 12.71875 -3.546875 "/></g></g></g><g fill="#fafafa" fill-opacity="1"><g transform="translate(150.355275, 280.653453)"><g><path d="M 13.59375 0.328125 C 11.289062 0.328125 9.210938 -0.171875 7.359375 -1.171875 C 5.515625 -2.179688 4.0625 -3.570312 3 -5.34375 C 1.945312 -7.125 1.421875 -9.109375 1.421875 -11.296875 C 1.421875 -13.492188 1.945312 -15.476562 3 -17.25 C 4.0625 -19.03125 5.515625 -20.421875 7.359375 -21.421875 C 9.210938 -22.429688 11.289062 -22.9375 13.59375 -22.9375 C 15.894531 -22.9375 17.972656 -22.429688 19.828125 -21.421875 C 21.679688 -20.421875 23.132812 -19.035156 24.1875 -17.265625 C 25.238281 -15.503906 25.765625 -13.515625 25.765625 -11.296875 C 25.765625 -9.085938 25.238281 -7.097656 24.1875 -5.328125 C 23.132812 -3.566406 21.679688 -2.179688 19.828125 -1.171875 C 17.972656 -0.171875 15.894531 0.328125 13.59375 0.328125 Z M 13.59375 -3.359375 C 15.101562 -3.359375 16.457031 -3.695312 17.65625 -4.375 C 18.863281 -5.050781 19.8125 -6 20.5 -7.21875 C 21.195312 -8.4375 21.546875 -9.796875 21.546875 -11.296875 C 21.546875 -12.804688 21.195312 -14.171875 20.5 -15.390625 C 19.8125 -16.609375 18.863281 -17.554688 17.65625 -18.234375 C 16.457031 -18.910156 15.101562 -19.25 13.59375 -19.25 C 12.09375 -19.25 10.738281 -18.910156 9.53125 -18.234375 C 8.320312 -17.554688 7.375 -16.609375 6.6875 -15.390625 C 6 -14.171875 5.65625 -12.804688 5.65625 -11.296875 C 5.65625 -9.796875 6 -8.4375 6.6875 -7.21875 C 7.375 -6 8.320312 -5.050781 9.53125 -4.375 C 10.738281 -3.695312 12.09375 -3.359375 13.59375 -3.359375 Z M 13.59375 -3.359375 "/></g></g></g><g fill="#fafafa" fill-opacity="1"><g transform="translate(183.683749, 280.653453)"><g><path d="M 12.75 0.328125 C 9.632812 0.328125 7.203125 -0.546875 5.453125 -2.296875 C 3.710938 -4.054688 2.84375 -6.570312 2.84375 -9.84375 L 2.84375 -22.609375 L 7.046875 -22.609375 L 7.046875 -10.015625 C 7.046875 -5.578125 8.960938 -3.359375 12.796875 -3.359375 C 16.597656 -3.359375 18.5 -5.578125 18.5 -10.015625 L 18.5 -22.609375 L 22.640625 -22.609375 L 22.640625 -9.84375 C 22.640625 -6.570312 21.769531 -4.054688 20.03125 -2.296875 C 18.300781 -0.546875 15.875 0.328125 12.75 0.328125 Z M 12.75 0.328125 "/></g></g></g><g fill="#fafafa" fill-opacity="1"><g transform="translate(215.300747, 280.653453)"><g><path d="M 21.578125 -5.140625 L 17.5625 -5.140625 L 17.5625 0 L 13.5 0 L 13.5 -5.140625 L 1.09375 -5.140625 L 1.09375 -8.046875 L 12.234375 -22.609375 L 16.734375 -22.609375 L 6.234375 -8.6875 L 13.625 -8.6875 L 13.625 -13.234375 L 17.5625 -13.234375 L 17.5625 -8.6875 L 21.578125 -8.6875 Z M 21.578125 -5.140625 "/></g></g></g><g fill="#fafafa" fill-opacity="1"><g transform="translate(243.365639, 280.653453)"><g><path d="M 3.03125 -22.609375 L 12.921875 -22.609375 C 15.328125 -22.609375 17.46875 -22.140625 19.34375 -21.203125 C 21.21875 -20.265625 22.671875 -18.9375 23.703125 -17.21875 C 24.734375 -15.507812 25.25 -13.535156 25.25 -11.296875 C 25.25 -9.054688 24.734375 -7.082031 23.703125 -5.375 C 22.671875 -3.664062 21.21875 -2.34375 19.34375 -1.40625 C 17.46875 -0.46875 15.328125 0 12.921875 0 L 3.03125 0 Z M 12.71875 -3.546875 C 14.382812 -3.546875 15.84375 -3.863281 17.09375 -4.5 C 18.351562 -5.132812 19.320312 -6.039062 20 -7.21875 C 20.6875 -8.394531 21.03125 -9.753906 21.03125 -11.296875 C 21.03125 -12.847656 20.6875 -14.210938 20 -15.390625 C 19.320312 -16.566406 18.351562 -17.472656 17.09375 -18.109375 C 15.84375 -18.742188 14.382812 -19.0625 12.71875 -19.0625 L 7.234375 -19.0625 L 7.234375 -3.546875 Z M 12.71875 -3.546875 "/></g></g></g><g fill="#fafafa" fill-opacity="1"><g transform="translate(276.177433, 280.653453)"><g><path d="M 19.984375 -3.515625 L 19.984375 0 L 3.03125 0 L 3.03125 -22.609375 L 19.546875 -22.609375 L 19.546875 -19.09375 L 7.234375 -19.09375 L 7.234375 -13.203125 L 18.15625 -13.203125 L 18.15625 -9.75 L 7.234375 -9.75 L 7.234375 -3.515625 Z M 19.984375 -3.515625 "/></g></g></g><g fill="#fafafa" fill-opacity="1"><g transform="translate(303.951689, 280.653453)"><g><path d="M 23.703125 -22.609375 L 13.859375 0 L 9.71875 0 L -0.15625 -22.609375 L 4.390625 -22.609375 L 11.921875 -5.171875 L 19.5 -22.609375 Z M 23.703125 -22.609375 "/></g></g></g><g fill="#85ccff" fill-opacity="1"><g transform="translate(150.681336, 304.320914)"><g><path d="M 7.046875 -1.234375 L 7.046875 0 L 1.078125 0 L 1.078125 -7.96875 L 6.890625 -7.96875 L 6.890625 -6.734375 L 2.546875 -6.734375 L 2.546875 -4.65625 L 6.40625 -4.65625 L 6.40625 -3.4375 L 2.546875 -3.4375 L 2.546875 -1.234375 Z M 7.046875 -1.234375 "/></g></g></g><g fill="#85ccff" fill-opacity="1"><g transform="translate(160.922116, 304.320914)"><g><path d="M 3.546875 0.109375 C 2.929688 0.109375 2.335938 0.0234375 1.765625 -0.140625 C 1.191406 -0.316406 0.738281 -0.550781 0.40625 -0.84375 L 0.90625 -2 C 1.238281 -1.738281 1.640625 -1.523438 2.109375 -1.359375 C 2.585938 -1.191406 3.066406 -1.109375 3.546875 -1.109375 C 4.140625 -1.109375 4.582031 -1.203125 4.875 -1.390625 C 5.164062 -1.585938 5.3125 -1.84375 5.3125 -2.15625 C 5.3125 -2.382812 5.226562 -2.570312 5.0625 -2.71875 C 4.894531 -2.863281 4.6875 -2.976562 4.4375 -3.0625 C 4.1875 -3.144531 3.847656 -3.238281 3.421875 -3.34375 C 2.804688 -3.488281 2.3125 -3.632812 1.9375 -3.78125 C 1.5625 -3.925781 1.238281 -4.148438 0.96875 -4.453125 C 0.695312 -4.765625 0.5625 -5.179688 0.5625 -5.703125 C 0.5625 -6.148438 0.679688 -6.550781 0.921875 -6.90625 C 1.160156 -7.269531 1.519531 -7.554688 2 -7.765625 C 2.488281 -7.984375 3.082031 -8.09375 3.78125 -8.09375 C 4.269531 -8.09375 4.75 -8.03125 5.21875 -7.90625 C 5.6875 -7.78125 6.09375 -7.601562 6.4375 -7.375 L 5.96875 -6.234375 C 5.613281 -6.429688 5.25 -6.582031 4.875 -6.6875 C 4.5 -6.800781 4.128906 -6.859375 3.765625 -6.859375 C 3.179688 -6.859375 2.742188 -6.757812 2.453125 -6.5625 C 2.171875 -6.363281 2.03125 -6.101562 2.03125 -5.78125 C 2.03125 -5.550781 2.113281 -5.363281 2.28125 -5.21875 C 2.445312 -5.070312 2.65625 -4.957031 2.90625 -4.875 C 3.15625 -4.789062 3.5 -4.695312 3.9375 -4.59375 C 4.519531 -4.457031 5 -4.3125 5.375 -4.15625 C 5.757812 -4.007812 6.085938 -3.785156 6.359375 -3.484375 C 6.628906 -3.179688 6.765625 -2.769531 6.765625 -2.25 C 6.765625 -1.8125 6.644531 -1.414062 6.40625 -1.0625 C 6.164062 -0.707031 5.800781 -0.421875 5.3125 -0.203125 C 4.832031 0.00390625 4.242188 0.109375 3.546875 0.109375 Z M 3.546875 0.109375 "/></g></g></g><g fill="#85ccff" fill-opacity="1"><g transform="translate(170.695985, 304.320914)"><g><path d="M 2.6875 -6.71875 L 0.046875 -6.71875 L 0.046875 -7.96875 L 6.8125 -7.96875 L 6.8125 -6.71875 L 4.171875 -6.71875 L 4.171875 0 L 2.6875 0 Z M 2.6875 -6.71875 "/></g></g></g><g fill="#85ccff" fill-opacity="1"><g transform="translate(180.162378, 304.320914)"><g><path d="M 1.078125 -7.96875 L 4.5625 -7.96875 C 5.40625 -7.96875 6.15625 -7.800781 6.8125 -7.46875 C 7.476562 -7.144531 7.992188 -6.679688 8.359375 -6.078125 C 8.722656 -5.472656 8.90625 -4.773438 8.90625 -3.984375 C 8.90625 -3.191406 8.722656 -2.492188 8.359375 -1.890625 C 7.992188 -1.285156 7.476562 -0.816406 6.8125 -0.484375 C 6.15625 -0.160156 5.40625 0 4.5625 0 L 1.078125 0 Z M 4.484375 -1.25 C 5.066406 -1.25 5.582031 -1.359375 6.03125 -1.578125 C 6.476562 -1.804688 6.820312 -2.128906 7.0625 -2.546875 C 7.300781 -2.960938 7.421875 -3.441406 7.421875 -3.984375 C 7.421875 -4.535156 7.300781 -5.015625 7.0625 -5.421875 C 6.820312 -5.835938 6.476562 -6.15625 6.03125 -6.375 C 5.582031 -6.601562 5.066406 -6.71875 4.484375 -6.71875 L 2.546875 -6.71875 L 2.546875 -1.25 Z M 4.484375 -1.25 "/></g></g></g><g fill="#85ccff" fill-opacity="1"><g transform="translate(192.179697, 304.320914)"><g/></g></g><g fill="#85ccff" fill-opacity="1"><g transform="translate(197.933591, 304.320914)"><g><path d="M 6.28125 -1.25 L 6.28125 0 L 0.40625 0 L 0.40625 -0.984375 L 3.5625 -4 C 3.914062 -4.34375 4.15625 -4.640625 4.28125 -4.890625 C 4.40625 -5.148438 4.46875 -5.40625 4.46875 -5.65625 C 4.46875 -6.019531 4.34375 -6.300781 4.09375 -6.5 C 3.84375 -6.695312 3.476562 -6.796875 3 -6.796875 C 2.1875 -6.796875 1.5625 -6.519531 1.125 -5.96875 L 0.09375 -6.765625 C 0.40625 -7.179688 0.820312 -7.503906 1.34375 -7.734375 C 1.875 -7.972656 2.46875 -8.09375 3.125 -8.09375 C 3.988281 -8.09375 4.675781 -7.882812 5.1875 -7.46875 C 5.707031 -7.0625 5.96875 -6.503906 5.96875 -5.796875 C 5.96875 -5.367188 5.875 -4.960938 5.6875 -4.578125 C 5.507812 -4.203125 5.160156 -3.769531 4.640625 -3.28125 L 2.515625 -1.25 Z M 6.28125 -1.25 "/></g></g></g><g fill="#85ccff" fill-opacity="1"><g transform="translate(207.172228, 304.320914)"><g><path d="M 3.828125 0.109375 C 3.191406 0.109375 2.617188 -0.0507812 2.109375 -0.375 C 1.609375 -0.695312 1.210938 -1.164062 0.921875 -1.78125 C 0.640625 -2.40625 0.5 -3.140625 0.5 -3.984375 C 0.5 -4.835938 0.640625 -5.570312 0.921875 -6.1875 C 1.210938 -6.8125 1.609375 -7.285156 2.109375 -7.609375 C 2.617188 -7.929688 3.191406 -8.09375 3.828125 -8.09375 C 4.460938 -8.09375 5.03125 -7.929688 5.53125 -7.609375 C 6.039062 -7.285156 6.441406 -6.8125 6.734375 -6.1875 C 7.023438 -5.570312 7.171875 -4.835938 7.171875 -3.984375 C 7.171875 -3.140625 7.023438 -2.40625 6.734375 -1.78125 C 6.441406 -1.164062 6.039062 -0.695312 5.53125 -0.375 C 5.03125 -0.0507812 4.460938 0.109375 3.828125 0.109375 Z M 3.828125 -1.171875 C 4.398438 -1.171875 4.847656 -1.40625 5.171875 -1.875 C 5.503906 -2.34375 5.671875 -3.046875 5.671875 -3.984375 C 5.671875 -4.921875 5.503906 -5.625 5.171875 -6.09375 C 4.847656 -6.5625 4.398438 -6.796875 3.828125 -6.796875 C 3.265625 -6.796875 2.816406 -6.5625 2.484375 -6.09375 C 2.160156 -5.625 2 -4.921875 2 -3.984375 C 2 -3.046875 2.160156 -2.34375 2.484375 -1.875 C 2.816406 -1.40625 3.265625 -1.171875 3.828125 -1.171875 Z M 3.828125 -1.171875 "/></g></g></g><g fill="#85ccff" fill-opacity="1"><g transform="translate(217.44718, 304.320914)"><g><path d="M 6.28125 -1.25 L 6.28125 0 L 0.40625 0 L 0.40625 -0.984375 L 3.5625 -4 C 3.914062 -4.34375 4.15625 -4.640625 4.28125 -4.890625 C 4.40625 -5.148438 4.46875 -5.40625 4.46875 -5.65625 C 4.46875 -6.019531 4.34375 -6.300781 4.09375 -6.5 C 3.84375 -6.695312 3.476562 -6.796875 3 -6.796875 C 2.1875 -6.796875 1.5625 -6.519531 1.125 -5.96875 L 0.09375 -6.765625 C 0.40625 -7.179688 0.820312 -7.503906 1.34375 -7.734375 C 1.875 -7.972656 2.46875 -8.09375 3.125 -8.09375 C 3.988281 -8.09375 4.675781 -7.882812 5.1875 -7.46875 C 5.707031 -7.0625 5.96875 -6.503906 5.96875 -5.796875 C 5.96875 -5.367188 5.875 -4.960938 5.6875 -4.578125 C 5.507812 -4.203125 5.160156 -3.769531 4.640625 -3.28125 L 2.515625 -1.25 Z M 6.28125 -1.25 "/></g></g></g><g fill="#85ccff" fill-opacity="1"><g transform="translate(226.68582, 304.320914)"><g><path d="M 6.28125 -1.25 L 6.28125 0 L 0.40625 0 L 0.40625 -0.984375 L 3.5625 -4 C 3.914062 -4.34375 4.15625 -4.640625 4.28125 -4.890625 C 4.40625 -5.148438 4.46875 -5.40625 4.46875 -5.65625 C 4.46875 -6.019531 4.34375 -6.300781 4.09375 -6.5 C 3.84375 -6.695312 3.476562 -6.796875 3 -6.796875 C 2.1875 -6.796875 1.5625 -6.519531 1.125 -5.96875 L 0.09375 -6.765625 C 0.40625 -7.179688 0.820312 -7.503906 1.34375 -7.734375 C 1.875 -7.972656 2.46875 -8.09375 3.125 -8.09375 C 3.988281 -8.09375 4.675781 -7.882812 5.1875 -7.46875 C 5.707031 -7.0625 5.96875 -6.503906 5.96875 -5.796875 C 5.96875 -5.367188 5.875 -4.960938 5.6875 -4.578125 C 5.507812 -4.203125 5.160156 -3.769531 4.640625 -3.28125 L 2.515625 -1.25 Z M 6.28125 -1.25 "/></g></g></g></svg>